<?xml version="1.0" encoding="UTF-8"?><svg id="Layer_4" xmlns="http://www.w3.org/2000/svg" viewBox="0 0 864 864"><defs><style>.cls-1{fill:#ffffff;}</style></defs><path class="cls-1" d="m747.49,467.45c-31.56-19.65-83.66-31.65-154.06-36.84L430.31,66.88,107.26,748.34l35.69,3.46c140.76-245.14,340.27-341.37,565.58-271.74-97.32,168.12-258.77,250.34-468.27,240.34,99.38-106.89,244.65-195.47,392.09-193.79l-19.41-26.35c-185.57,4.04-362.86,124.23-432.15,249.54,147.33,13.68,279.79-4.96,389.04-74.04l32.3,74.04h132.29l-70.33-155.74c32.16-31.56,60.24-73.1,83.4-126.6Zm-242.94-33.69l-75.13-172.65-85.84,201.49,41.38-20.53,44.47-104.93,42.29,100.78c-96.56,23.64-183.42,79.77-261.61,164.91l219.32-467.04,130.39,294.15c-20.62,1.15-39.77,2.38-55.26,3.84Zm185.95,289.73l-66.1-.9-29.45-64.97c17.12-12.25,33.3-26.58,48.53-43.01l47.02,108.88Z"/></svg>